<svg width="40" height="40" viewBox="0 0 40 40" fill="none" xmlns="http://www.w3.org/2000/svg">
  <path d="M6 13.3334C6 11.7338 6.00212 10.6347 6.11312 9.80909C6.22025 9.01226 6.41203 8.62155 6.68342 8.35017C6.9548 8.07878 7.34552 7.887 8.14234 7.77987C8.96793 7.66887 10.067 7.66675 11.6667 7.66675H28.3333C29.933 7.66675 31.0321 7.66887 31.8577 7.77987C32.6545 7.887 33.0452 8.07878 33.3166 8.35017C33.588 8.62155 33.7797 9.01227 33.8869 9.80909C33.9979 10.6347 34 11.7338 34 13.3334V27.3334H6V13.3334Z" stroke="#0DD99F" stroke-width="2"/>
  <path d="M6.11111 27.3333C4.94518 27.3333 4 28.2784 4 29.4444C4 31.2239 5.44264 32.6666 7.22222 32.6666H32.7778C34.5574 32.6666 36 31.2239 36 29.4444C36 28.2784 35.0548 27.3333 33.8889 27.3333H6.11111Z" stroke="#0DD99F" stroke-width="2"/>
</svg>
