<svg width="34" height="31" viewBox="0 0 34 31" fill="none" xmlns="http://www.w3.org/2000/svg">
  <path d="M5.66667 22.9108H28.3333C29.1125 22.9108 29.75 22.338 29.75 21.638C29.75 20.9379 29.1125 20.3652 28.3333 20.3652H5.66667C4.8875 20.3652 4.25 20.9379 4.25 21.638C4.25 22.338 4.8875 22.9108 5.66667 22.9108ZM5.66667 16.5467H28.3333C29.1125 16.5467 29.75 15.9739 29.75 15.2739C29.75 14.5738 29.1125 14.0011 28.3333 14.0011H5.66667C4.8875 14.0011 4.25 14.5738 4.25 15.2739C4.25 15.9739 4.8875 16.5467 5.66667 16.5467ZM4.25 8.90978C4.25 9.60983 4.8875 10.1826 5.66667 10.1826H28.3333C29.1125 10.1826 29.75 9.60983 29.75 8.90978C29.75 8.20973 29.1125 7.63696 28.3333 7.63696H5.66667C4.8875 7.63696 4.25 8.20973 4.25 8.90978Z" fill="white"/>
</svg>
