<svg width="46" height="46" viewBox="0 0 46 46" fill="none" xmlns="http://www.w3.org/2000/svg">
<path d="M39.6622 33.2146C40.347 30.6588 40.4347 27.9798 39.9185 25.3847C39.4023 22.7896 38.2961 20.348 36.6853 18.2489C35.0746 16.1497 33.0025 14.4492 30.6295 13.2789C28.2564 12.1087 25.6459 11.5 23 11.5C20.3541 11.5 17.7436 12.1087 15.3705 13.2789C12.9975 14.4492 10.9254 16.1497 9.31465 18.2489C7.70391 20.348 6.59765 22.7896 6.08145 25.3847C5.56526 27.9798 5.65296 30.6589 6.33778 33.2146" stroke="#4A6DD9" stroke-width="2" stroke-linecap="round"/>
<path d="M24.4675 29.8661C25.4018 31.2257 24.7447 33.2999 22.9999 34.4989C21.2551 35.6979 19.0832 35.5678 18.1489 34.2082C17.0122 32.554 12.6933 22.1696 10.8337 17.6455C10.63 17.1497 11.2383 16.7317 11.628 17.0997C15.1848 20.4574 23.3308 28.2119 24.4675 29.8661Z" stroke="#4A6DD9" stroke-width="2"/>
<path d="M23 11.5V15.3333" stroke="#4A6DD9" stroke-width="2" stroke-linecap="round"/>
<path d="M10.8022 16.5519L13.5128 19.2625" stroke="#4A6DD9" stroke-width="2" stroke-linecap="round"/>
<path d="M35.1978 16.5519L32.4872 19.2625" stroke="#4A6DD9" stroke-width="2" stroke-linecap="round"/>
<path d="M39.6621 33.2141L35.9594 32.222" stroke="#4A6DD9" stroke-width="2" stroke-linecap="round"/>
<path d="M6.33765 33.2141L10.0404 32.222" stroke="#4A6DD9" stroke-width="2" stroke-linecap="round"/>
</svg>
