<svg width="82" height="79" viewBox="0 0 82 79" fill="none" xmlns="http://www.w3.org/2000/svg">
  <path d="M28.2161 9.96274C32.2399 -2.42129 49.7601 -2.42129 53.7839 9.96275C55.7173 15.9131 61.2623 19.9418 67.5188 19.9418C80.5402 19.9418 85.9542 36.6044 75.4197 44.2581C70.358 47.9356 68.24 54.4542 70.1734 60.4045C74.1972 72.7886 60.0231 83.0866 49.4887 75.4329C44.427 71.7553 37.573 71.7553 32.5114 75.4329C21.9769 83.0866 7.80279 72.7886 11.8266 60.4045C13.76 54.4542 11.642 47.9356 6.58033 44.2581C-3.95416 36.6044 1.45985 19.9418 14.4812 19.9418C20.7377 19.9418 26.2827 15.9131 28.2161 9.96274Z" stroke="#0DD99F"/>
</svg>
