<svg width="40" height="40" viewBox="0 0 40 40" fill="none" xmlns="http://www.w3.org/2000/svg">
  <path d="M18.2111 34.1057L17.7639 35.0001L18.2111 34.1057ZM21.7889 34.1057L21.3416 33.2112V33.2112L21.7889 34.1057ZM22.2278 33.8862L22.675 34.7806L22.2278 33.8862ZM23.3739 32.0982L22.376 32.0326L23.3739 32.0982ZM23.164 33.2699L22.3311 32.7165L23.164 33.2699ZM16.6261 32.0982L15.6283 32.1638L16.6261 32.0982ZM17.7722 33.8862L17.325 34.7806L17.7722 33.8862ZM16.836 33.2699L16.003 33.8232L16.836 33.2699ZM14.3307 24.9055L13.7631 25.7288L14.3307 24.9055ZM15.0832 25.7756L15.9991 25.3742L15.0832 25.7756ZM14.832 25.2974L15.6031 24.6608L14.832 25.2974ZM25.6693 24.9055L25.1017 24.0822L25.6693 24.9055ZM24.9168 25.7756L25.8327 26.177L24.9168 25.7756ZM25.168 25.2974L24.3969 24.6608L25.168 25.2974ZM29 16.6667C29 19.7419 27.4586 22.4573 25.1017 24.0822L26.2369 25.7288C29.1121 23.7466 31 20.4273 31 16.6667H29ZM20 7.66675C24.9706 7.66675 29 11.6962 29 16.6667H31C31 10.5916 26.0751 5.66675 20 5.66675V7.66675ZM11 16.6667C11 11.6962 15.0294 7.66675 20 7.66675V5.66675C13.9249 5.66675 9 10.5916 9 16.6667H11ZM14.8983 24.0822C12.5414 22.4573 11 19.7419 11 16.6667H9C9 20.4273 10.8879 23.7466 13.7631 25.7288L14.8983 24.0822ZM17.624 32.0326C17.4728 29.7337 16.9223 27.4806 15.9991 25.3742L14.1673 26.177C14.9973 28.071 15.4924 30.0968 15.6283 32.1638L17.624 32.0326ZM18.6584 33.2112L18.2195 32.9918L17.325 34.7806L17.7639 35.0001L18.6584 33.2112ZM21.3416 33.2112C20.4971 33.6335 19.5029 33.6335 18.6584 33.2112L17.7639 35.0001C19.1716 35.7039 20.8284 35.7039 22.2361 35.0001L21.3416 33.2112ZM21.7805 32.9918L21.3416 33.2112L22.2361 35.0001L22.675 34.7806L21.7805 32.9918ZM24.0009 25.3742C23.0777 27.4806 22.5272 29.7337 22.376 32.0326L24.3717 32.1638C24.5076 30.0968 25.0027 28.071 25.8327 26.177L24.0009 25.3742ZM22.675 34.7806C22.9211 34.6576 23.1679 34.5353 23.3669 34.4112C23.5814 34.2775 23.8141 34.0984 23.997 33.8232L22.3311 32.7165C22.3665 32.6632 22.394 32.6609 22.3087 32.7141C22.208 32.7769 22.0603 32.8519 21.7805 32.9918L22.675 34.7806ZM22.376 32.0326C22.354 32.3672 22.3409 32.5529 22.3204 32.6851C22.3017 32.8059 22.2903 32.7779 22.3311 32.7165L23.997 33.8232C24.1852 33.5399 24.2579 33.2427 24.2968 32.9914C24.334 32.7516 24.3521 32.4624 24.3717 32.1638L22.376 32.0326ZM15.6283 32.1638C15.6479 32.4624 15.666 32.7516 15.7032 32.9914C15.7421 33.2427 15.8148 33.5399 16.003 33.8232L17.6689 32.7165C17.7097 32.7779 17.6983 32.8059 17.6796 32.6851C17.6591 32.5529 17.646 32.3672 17.624 32.0326L15.6283 32.1638ZM18.2195 32.9918C17.9397 32.8519 17.792 32.7769 17.6913 32.7141C17.606 32.6609 17.6335 32.6632 17.6689 32.7165L16.003 33.8232C16.1859 34.0984 16.4186 34.2775 16.6331 34.4112C16.8321 34.5353 17.0789 34.6576 17.325 34.7806L18.2195 32.9918ZM13.7631 25.7288C13.9084 25.829 13.9886 25.8846 14.0451 25.9277C14.0977 25.9677 14.0863 25.9649 14.0608 25.9341L15.6031 24.6608C15.403 24.4184 15.1158 24.2322 14.8983 24.0822L13.7631 25.7288ZM15.9991 25.3742C15.9109 25.173 15.8003 24.8997 15.6031 24.6608L14.0608 25.9341C14.0444 25.9142 14.042 25.9041 14.0585 25.9367C14.0679 25.9553 14.0807 25.982 14.0994 26.0235C14.1183 26.0653 14.1395 26.1138 14.1673 26.177L15.9991 25.3742ZM25.1017 24.0822C24.8842 24.2322 24.597 24.4184 24.3969 24.6608L25.9392 25.9341C25.9137 25.9649 25.9023 25.9677 25.9549 25.9277C26.0114 25.8846 26.0916 25.829 26.2369 25.7288L25.1017 24.0822ZM25.8327 26.177C25.8604 26.1138 25.8817 26.0653 25.9006 26.0235C25.9193 25.982 25.9321 25.9553 25.9415 25.9367C25.958 25.9041 25.9556 25.9142 25.9392 25.9341L24.3969 24.6608C24.1997 24.8997 24.0891 25.173 24.0009 25.3742L25.8327 26.177Z" fill="#F07EF2"/>
  <path d="M24.9871 26.6667V26.6667C21.9687 28.6844 18.0319 28.6844 15.0134 26.6667V26.6667" stroke="#F07EF2" stroke-width="2"/>
</svg>
