<svg width="40" height="40" viewBox="0 0 40 40" fill="none" xmlns="http://www.w3.org/2000/svg">
  <path d="M11.9357 5.2692C11.2308 5.97413 10.9344 6.85724 10.7975 7.87585C10.6664 8.85033 10.6665 10.0846 10.6665 11.5951L10.6665 11.6667V28.3333L10.6665 28.4049C10.6665 29.9154 10.6664 31.1497 10.7975 32.1242C10.9344 33.1428 11.2308 34.0259 11.9357 34.7308C12.6406 35.4357 13.5237 35.7321 14.5423 35.869C15.5168 36.0001 16.7512 36 18.2616 36H18.3332H21.6665H21.7381C23.2485 36 24.4828 36.0001 25.4573 35.869C26.4759 35.7321 27.359 35.4357 28.064 34.7308C28.7689 34.0259 29.0653 33.1428 29.2022 32.1242C29.3332 31.1497 29.3332 29.9153 29.3332 28.4049V28.3333V11.6667V11.5951C29.3332 10.0846 29.3332 8.85034 29.2022 7.87585C29.0653 6.85724 28.7689 5.97413 28.064 5.2692C27.359 4.56428 26.4759 4.2679 25.4573 4.13096C24.4828 3.99994 23.2485 3.99997 21.7381 4L21.6665 4H18.3332L18.2616 4C16.7511 3.99997 15.5168 3.99994 14.5424 4.13096C13.5237 4.2679 12.6406 4.56428 11.9357 5.2692Z" stroke="#4A6DD9" stroke-width="2"/>
  <path d="M11.6665 26.6667H28.3332" stroke="#4A6DD9" stroke-width="2"/>
</svg>
