<svg width="46" height="46" viewBox="0 0 46 46" fill="none" xmlns="http://www.w3.org/2000/svg">
<g clip-path="url(#clip0_92_133)">
<path d="M40.8889 16.6111H30.6666C29.9889 16.6111 29.3388 16.8803 28.8596 17.3596C28.3803 17.8388 28.1111 18.4889 28.1111 19.1666V38.3333C28.1111 39.0111 28.3803 39.6611 28.8596 40.1404C29.3388 40.6196 29.9889 40.8889 30.6666 40.8889H40.8889C41.5666 40.8889 42.2167 40.6196 42.6959 40.1404C43.1752 39.6611 43.4444 39.0111 43.4444 38.3333V19.1666C43.4444 18.4889 43.1752 17.8388 42.6959 17.3596C42.2167 16.8803 41.5666 16.6111 40.8889 16.6111ZM40.8889 19.1666V33.2222H30.6666V19.1666H40.8889ZM30.6666 38.3333V35.2666H40.8889V38.3333H30.6666Z" fill="#4A6DD9"/>
<path d="M25.5557 28.1111H5.11122V7.66664H35.7779V14.0555H38.3334V7.66664C38.3334 6.98886 38.0642 6.33885 37.5849 5.85959C37.1057 5.38033 36.4557 5.11108 35.7779 5.11108H5.11122C4.43344 5.11108 3.78343 5.38033 3.30417 5.85959C2.82491 6.33885 2.55566 6.98886 2.55566 7.66664V28.1111C2.55566 28.7889 2.82491 29.4389 3.30417 29.9181C3.78343 30.3974 4.43344 30.6666 5.11122 30.6666H25.5557V28.1111Z" fill="#4A6DD9"/>
<path d="M25.5555 33.2222H11.4999C11.1611 33.2222 10.8361 33.3568 10.5964 33.5964C10.3568 33.836 10.2222 34.1611 10.2222 34.4999C10.2222 34.8388 10.3568 35.1638 10.5964 35.4035C10.8361 35.6431 11.1611 35.7777 11.4999 35.7777H25.5555V33.2222Z" fill="#4A6DD9"/>
</g>
<defs>
<clipPath id="clip0_92_133">
<rect width="46" height="46" fill="white"/>
</clipPath>
</defs>
</svg>
