<svg width="45" height="46" viewBox="0 0 45 46" fill="none" xmlns="http://www.w3.org/2000/svg">
<path d="M9.37487 24.9167C9.37487 18.5654 14.4117 13.4167 20.6249 13.4167M9.37487 24.9167C9.37487 28.0761 10.6212 30.9379 12.6388 33.0164C12.8333 33.2169 12.9306 33.3171 12.9881 33.4135C13.0428 33.5055 13.0748 33.5846 13.0992 33.6894C13.1249 33.7991 13.1249 33.924 13.1249 34.1738V38.7167C13.1249 39.2534 13.1249 39.5217 13.2271 39.7267C13.3169 39.9071 13.4604 40.0537 13.6368 40.1455C13.8373 40.25 14.0998 40.25 14.6249 40.25H18.1874C18.7124 40.25 18.9749 40.25 19.1755 40.1455C19.3519 40.0537 19.4953 39.9071 19.5852 39.7267C19.6874 39.5217 19.6874 39.2534 19.6874 38.7167V37.95C19.6874 37.4133 19.6874 37.1449 19.7896 36.9399C19.8794 36.7596 20.0229 36.613 20.1993 36.5211C20.3998 36.4167 20.6623 36.4167 21.1874 36.4167H23.8124C24.3374 36.4167 24.5999 36.4167 24.8005 36.5211C24.9769 36.613 25.1203 36.7596 25.2102 36.9399C25.3124 37.1449 25.3124 37.4133 25.3124 37.95V38.7167C25.3124 39.2534 25.3124 39.5217 25.4146 39.7267C25.5044 39.9071 25.6479 40.0537 25.8243 40.1455C26.0248 40.25 26.2873 40.25 26.8124 40.25H30.375C30.9 40.25 31.1626 40.25 31.3631 40.1455C31.5395 40.0537 31.6829 39.9071 31.7728 39.7267C31.875 39.5217 31.875 39.2534 31.875 38.7167V36.8466C31.875 36.4593 31.875 36.2657 31.9289 36.1103C31.9806 35.9613 32.0457 35.857 32.1562 35.7463C32.2714 35.6308 32.4666 35.5382 32.8569 35.353C34.6986 34.4789 36.2701 33.1105 37.4084 31.4145C37.6085 31.1162 37.7086 30.9671 37.8155 30.879C37.9177 30.7948 38.0094 30.7454 38.1351 30.7069C38.2667 30.6667 38.4228 30.6667 38.7351 30.6667H39.75C40.275 30.6667 40.5376 30.6667 40.7381 30.5622C40.9145 30.4703 41.0579 30.3237 41.1478 30.1434C41.25 29.9384 41.25 29.67 41.25 29.1333V22.5894C41.25 22.0784 41.25 21.8229 41.1571 21.6258C41.065 21.4302 40.9106 21.2725 40.7193 21.1783C40.5265 21.0833 40.2766 21.0833 39.7767 21.0833C39.4149 21.0833 39.234 21.0833 39.0883 21.0331C38.9312 20.979 38.821 20.907 38.707 20.7839C38.6013 20.6698 38.515 20.4789 38.3424 20.0972C37.7884 18.8719 37.0297 17.7632 36.1111 16.8169C35.9165 16.6165 35.8192 16.5162 35.7618 16.4198C35.707 16.3279 35.6751 16.2487 35.6506 16.144C35.625 16.0342 35.625 15.9093 35.625 15.6595V13.5328C35.625 12.8427 35.625 12.4976 35.4844 12.2657C35.3613 12.0626 35.1683 11.9138 34.9434 11.8485C34.6866 11.7741 34.362 11.8689 33.7129 12.0584L29.2644 13.3577C29.1888 13.3798 29.151 13.3908 29.1125 13.3985C29.0784 13.4054 29.0439 13.4104 29.0092 13.4133C28.9702 13.4167 28.9306 13.4167 28.8514 13.4167H20.6249M9.37487 24.9167H7.5C5.42893 24.9167 3.75 23.2004 3.75 21.0833C3.75 19.6645 4.50412 18.4256 5.625 17.7628M20.6249 13.4167H28.0585C28.1023 13.1037 28.125 12.7837 28.125 12.4583C28.125 8.75342 25.1869 5.75 21.5625 5.75C17.9381 5.75 15 8.75342 15 12.4583C15 13.258 15.1369 14.0249 15.388 14.7361C16.9521 13.8935 18.734 13.4167 20.6249 13.4167Z" stroke="#0DD99F" stroke-width="2" stroke-linecap="round" stroke-linejoin="round"/>
</svg>
