<svg width="43" height="43" viewBox="0 0 43 43" fill="none" xmlns="http://www.w3.org/2000/svg">
<circle cx="21.4999" cy="14.3333" r="7.16667" stroke="#F07EF2" stroke-width="2" stroke-linecap="round"/>
<path fill-rule="evenodd" clip-rule="evenodd" d="M29.2027 29.25C26.8652 28.2129 24.2065 27.6666 21.5 27.6666C18.1863 27.6666 14.9444 28.4855 12.2756 30.0214C9.60742 31.5569 7.62453 33.7475 6.71335 36.2979C6.52754 36.818 6.79853 37.3902 7.31862 37.576C7.83871 37.7618 8.41095 37.4908 8.59676 36.9708C9.31887 34.9496 10.9349 33.1005 13.2732 31.7548C15.6109 30.4095 18.5031 29.6666 21.5 29.6666C22.1394 29.6666 22.774 29.7004 23.3995 29.7667C23.8796 29.4405 24.4592 29.25 25.0833 29.25L29.2027 29.25ZM35.25 37.63C35.3917 37.6436 35.5385 37.6271 35.6814 37.576C36.2015 37.3902 36.4724 36.818 36.2866 36.2979C36.1592 35.9413 36.0109 35.5917 35.8426 35.25H35.25V37.63Z" fill="#F07EF2"/>
<path d="M32.25 25.0834L32.25 39.4167" stroke="#F07EF2" stroke-width="2.5" stroke-linecap="round"/>
<path d="M39.4165 32.25L25.0832 32.25" stroke="#F07EF2" stroke-width="2.5" stroke-linecap="round"/>
</svg>
